<svg data-v-423bf9ae=""  xmlns="http://www.w3.org/2000/svg" viewBox="0 0 640.7304050058389 193" class="fontAboveSlogan"><defs data-v-423bf9ae=""><linearGradient data-v-423bf9ae="" gradientTransform="rotate(25)" id="af1a4742-4c41-49e1-ae99-14148a58cbd5" x1="0%" y1="0%" x2="100%" y2="0%"><stop data-v-423bf9ae="" offset="0%" style="stop-color: rgb(81, 164, 251); stop-opacity: 1;"></stop><stop data-v-423bf9ae="" offset="100%" style="stop-color: rgb(81, 164, 251); stop-opacity: 1;"></stop></linearGradient></defs><g data-v-423bf9ae="" id="d7ce46c2-d07f-4bb1-937a-cde2e2a89301"  transform="matrix(10.958903346029249,0,0,10.958903346029249,26.020282558481767,-38.55328237314727)"><path d="M1.23 14.35L7.67 14.35L7.67 13.48L5.54 13.48L5.54 4.58L3.93 4.58L0.76 6.17L1.09 6.93L3.46 6.06L3.46 13.48L1.23 13.48ZM8.90 14.35L15.76 14.35L15.76 11.42L14.80 11.42L14.80 12.66L10.40 12.66L10.40 12.60L12.91 10.70C14.22 9.67 15.44 8.71 15.44 7.10C15.44 5.40 14.18 4.41 11.97 4.41C10.15 4.41 9.00 5.22 9.00 6.34C9.00 6.96 9.44 7.42 10.09 7.42C10.75 7.42 11.19 6.96 11.19 6.34C11.19 5.95 10.96 5.64 10.67 5.47L10.67 5.40C10.89 5.32 11.21 5.24 11.59 5.24C12.57 5.24 13.22 5.85 13.22 6.94L13.22 7.32C13.22 8.39 12.61 9.24 11.73 10.11L8.90 12.92ZM20.45 14.52C22.16 14.52 23.28 13.66 23.28 12.21C23.28 10.82 22.47 10.23 20.90 9.84L20.23 9.69C19.46 9.51 19.17 9.18 19.17 8.67C19.17 8.12 19.59 7.83 20.34 7.83C21.36 7.83 21.81 8.19 21.81 8.90L21.81 9.23L23.10 9.23L23.10 7.04L21.81 7.04L21.81 7.74L21.76 7.74C21.62 7.28 21.06 6.87 20.08 6.87C18.48 6.87 17.43 7.69 17.43 9.13C17.43 10.39 18.19 11.13 19.80 11.51L20.51 11.68C21.22 11.84 21.55 12.14 21.55 12.64C21.55 13.29 21.10 13.57 20.15 13.57C19.10 13.57 18.65 13.19 18.65 12.49L18.65 12.17L17.36 12.17L17.36 14.35L18.65 14.35L18.65 13.65L18.70 13.65C18.86 14.10 19.45 14.52 20.45 14.52ZM24.32 14.35L28.04 14.35L28.04 13.48L27.19 13.48L27.19 9.31C27.19 8.50 27.93 8.15 28.62 8.15C29.51 8.15 29.88 8.61 29.88 9.66L29.88 13.48L29.02 13.48L29.02 14.35L32.75 14.35L32.75 13.48L31.85 13.48L31.85 9.59C31.85 7.78 31.16 6.87 29.36 6.87C28.21 6.87 27.52 7.48 27.27 8.19L27.19 8.19L27.19 3.57L24.32 4.13L24.32 4.87L25.21 5.05L25.21 13.48L24.32 13.48ZM37.28 13.57C36.32 13.57 35.81 12.94 35.81 11.86L35.81 9.53C35.81 8.46 36.32 7.83 37.28 7.83C38.25 7.83 38.75 8.46 38.75 9.53L38.75 11.86C38.75 12.94 38.25 13.57 37.28 13.57ZM37.28 14.52C39.42 14.52 40.85 13.09 40.85 10.70C40.85 8.30 39.42 6.87 37.28 6.87C35.14 6.87 33.71 8.30 33.71 10.70C33.71 13.09 35.14 14.52 37.28 14.52ZM44.02 14.35L45.51 14.35L47.19 9.13L47.28 9.13L48.92 14.35L50.41 14.35L52.33 7.91L53.03 7.91L53.03 7.04L50.36 7.04L50.36 7.91L51.37 7.91L50.18 12.45L50.11 12.45L48.43 7.04L46.87 7.04L45.32 12.43L45.23 12.43L44.09 7.91L44.93 7.91L44.93 7.04L41.40 7.04L41.40 7.91L42.10 7.91Z"></path></g></svg>